{"glyphs":{":":{"x_min":0,"x_max":250,"ha":250,"o":"m 200 450 q 200 409 170 380 q 141 350 100 350 q 59 350 30 380 q 0 409 0 450 q 0 491 30 520 q 59 550 100 550 q 141 550 170 520 q 200 491 200 450 z m 200 100 q 200 59 170 30 q 141 0 100 0 q 59 0 30 30 q 0 59 0 100 q 0 141 30 170 q 59 200 100 200 q 141 200 170 170 q 200 141 200 100 z"},"$":{"x_min":0,"x_max":556,"ha":556,"o":"m 249 -103 l 249 -15 q 183 -7 142 14 q 101 36 71 83 q 41 130 36 199 l 124 215 q 134 145 160 111 q 197 64 249 59 l 249 339 q 195 349 138 381 q 96 404 74 446 q 51 487 51 540 q 51 634 117 692 q 162 731 249 740 l 249 782 l 301 782 l 301 740 q 377 732 422 695 q 480 647 492 563 l 401 550 q 393 602 368 630 q 344 657 301 666 l 301 412 q 367 396 389 386 q 430 368 456 342 q 481 316 495 280 q 509 245 509 204 q 509 112 451 51 q 393 -10 301 -14 l 301 -103 z m 249 667 q 198 659 168 626 q 139 592 139 547 q 139 502 164 472 q 189 441 249 423 z m 301 59 q 352 65 386 104 q 419 142 419 198 q 419 246 396 275 q 372 304 301 327 z"},"?":{"x_min":0,"x_max":550,"ha":550,"o":"m 500 430 q 500 376 450 338 q 400 300 330 300 q 309 300 294 286 q 280 271 280 250 l 120 250 l 120 270 q 120 324 158 362 q 196 400 250 400 q 271 400 286 414 q 300 429 300 450 l 300 470 q 300 491 286 506 q 271 520 250 520 q 229 520 214 506 q 200 491 200 470 l 200 430 l 0 430 l 0 450 q 0 533 58 592 q 117 650 200 650 l 300 650 q 383 650 442 592 q 500 533 500 450 z m 300 100 q 300 59 270 30 q 241 0 200 0 q 159 0 130 30 q 100 59 100 100 q 100 141 130 170 q 159 200 200 200 q 241 200 270 170 q 300 141 300 100 z"},"<":{"x_min":0,"x_max":583,"ha":583,"o":"m 55 313 l 55 395 l 529 595 l 529 508 l 153 354 l 529 198 l 529 110 z"},"'":{"x_min":0,"x_max":250,"ha":250,"o":"m 200 550 q 200 467 142 408 q 83 350 0 350 l 0 400 q 41 400 70 414 q 100 429 100 450 q 59 450 30 480 q 0 509 0 550 q 0 591 30 620 q 59 650 100 650 q 141 650 170 620 q 200 591 200 550 z m 0 350 z"},"=":{"x_min":0,"x_max":583,"ha":583,"o":"m 528 421 l 56 421 l 56 503 l 528 503 z m 528 204 l 56 204 l 56 286 l 528 286 z"},"a":{"x_min":0,"x_max":750,"ha":750,"o":"m 700 0 l 490 0 l 463 80 l 237 80 l 210 0 l 0 0 l 220 650 l 480 650 z m 416 220 l 350 414 l 284 220 z"},"L":{"x_min":0,"x_max":650,"ha":650,"o":"m 600 0 l 0 0 l 0 450 l -70 450 l -70 650 l 200 650 l 200 200 l 600 200 z"},"3":{"x_min":0,"x_max":600,"ha":600,"o":"m 550 200 q 550 117 492 58 q 433 0 350 0 l 200 0 q 117 0 58 58 q 0 117 0 200 l 0 250 l 200 250 l 200 230 q 200 209 214 194 q 229 180 250 180 l 300 180 q 321 180 336 194 q 350 209 350 230 q 350 251 336 266 q 321 280 300 280 l 275 280 l 275 370 l 300 370 q 321 370 336 384 q 350 399 350 420 q 350 441 336 456 q 321 470 300 470 l 250 470 q 229 470 214 456 q 200 441 200 420 l 200 400 l 0 400 l 0 450 q 0 533 58 592 q 117 650 200 650 l 350 650 q 433 650 492 592 q 550 533 550 450 q 550 402 538 376 q 530 358 500 325 q 530 292 538 274 q 550 248 550 200 z"},";":{"x_min":0,"x_max":250,"ha":250,"o":"m 200 450 q 200 409 170 380 q 141 350 100 350 q 59 350 30 380 q 0 409 0 450 q 0 491 30 520 q 59 550 100 550 q 141 550 170 520 q 200 491 200 450 z m 200 100 q 200 17 142 -42 q 83 -100 0 -100 l 0 -50 q 41 -50 70 -36 q 100 -21 100 0 q 59 0 30 30 q 0 59 0 100 q 0 141 30 170 q 59 200 100 200 q 141 200 170 170 q 200 141 200 100 z m 0 -100 z"},"J":{"x_min":0,"x_max":400,"ha":400,"o":"m 350 100 q 350 -24 262 -112 q 174 -200 50 -200 l 0 0 l 50 0 q 91 0 120 30 q 150 59 150 100 l 150 450 l -70 450 l -70 650 l 350 650 z"},"V":{"x_min":0,"x_max":750,"ha":750,"o":"m 700 650 l 480 0 l 220 0 l 68 450 l -70 450 l -70 650 l 210 650 l 350 236 l 490 650 z"},"\"":{"x_min":0,"x_max":470,"ha":470,"o":"m 420 550 q 420 467 362 408 q 303 350 220 350 l 220 400 q 261 400 290 414 q 320 429 320 450 q 279 450 250 480 q 220 509 220 550 q 220 591 250 620 q 279 650 320 650 q 361 650 390 620 q 420 591 420 550 z m 200 550 q 200 467 142 408 q 83 350 0 350 l 0 400 q 41 400 70 414 q 100 429 100 450 q 59 450 30 480 q 0 509 0 550 q 0 591 30 620 q 59 650 100 650 q 141 650 170 620 q 200 591 200 550 z m 220 350 z m 0 350 z"},"7":{"x_min":0,"x_max":600,"ha":600,"o":"m 550 450 q 509 419 468 388 q 397 329 356 256 q 300 156 300 30 l 300 0 l 100 0 l 100 60 q 100 185 160 305 q 213 411 275 450 l 0 450 l 0 650 l 550 650 z"},"S":{"x_min":0,"x_max":650,"ha":650,"o":"m 600 450 l 336 450 q 327 447 327 438 q 327 433 330 428 l 408 384 q 530 316 530 200 q 530 117 472 58 q 413 0 330 0 l -70 0 l -70 200 l 264 200 q 273 203 273 212 q 273 217 270 222 l 192 266 q 70 334 70 450 q 70 533 128 592 q 187 650 270 650 l 600 650 z"},"}":{"x_min":0,"x_max":333,"ha":333,"o":"m 306 299 l 306 219 q 268 218 244 198 q 221 179 213 146 q 205 112 204 30 q 204 -51 202 -77 q 197 -118 185 -142 q 173 -167 156 -182 q 138 -197 111 -205 q 92 -210 50 -210 l 23 -210 l 23 -134 l 38 -134 q 89 -134 106 -116 q 122 -97 122 -33 q 122 89 126 122 q 134 176 158 208 q 181 241 224 259 q 168 286 145 330 q 122 374 122 479 q 122 574 120 593 q 116 625 100 638 q 84 651 38 651 l 23 651 l 23 728 l 50 728 q 98 728 120 720 q 151 709 172 684 q 192 659 198 620 q 204 582 204 494 q 205 406 213 372 q 221 339 244 320 q 268 300 306 299 z"},"Z":{"x_min":0,"x_max":650,"ha":650,"o":"m 600 0 l 0 0 l 0 200 l 290 450 l -70 450 l -70 650 l 600 650 l 600 450 l 310 200 l 600 200 z"},"x":{"x_min":0,"x_max":700,"ha":700,"o":"m 650 0 l 410 0 l 325 135 l 240 0 l 0 0 l 205 325 l 0 650 l 240 650 l 325 515 l 410 650 l 650 650 l 445 325 z"},")":{"x_min":0,"x_max":400,"ha":400,"o":"m 300 325 q 300 187 253 88 q 206 -12 100 -100 l 50 -100 q 143 -4 182 93 q 220 190 220 325 q 220 459 181 556 q 142 654 50 750 l 100 750 q 206 662 253 562 q 300 462 300 325 z"},"&":{"x_min":0,"x_max":666,"ha":666,"o":"m 475 84 q 432 36 380 12 q 329 -12 270 -12 q 160 -12 95 62 q 43 123 43 197 q 43 264 86 318 q 128 371 213 411 q 165 467 149 502 q 133 536 133 568 q 133 633 184 680 q 234 728 311 728 q 384 728 430 683 q 477 638 477 575 q 477 473 342 401 l 470 237 q 492 280 504 337 l 596 317 q 572 224 532 163 q 582 98 644 53 l 585 -17 q 532 18 475 84 z m 296 458 q 354 491 370 516 q 387 542 387 573 q 387 609 364 632 q 341 656 306 656 q 271 656 247 633 q 223 610 223 577 q 223 560 232 542 q 240 523 257 503 z m 420 154 l 259 354 q 188 311 163 274 q 138 238 138 203 q 138 159 172 112 q 207 65 271 65 q 310 65 352 90 q 395 115 420 154 z"},"_":{"x_min":0,"x_max":568,"ha":568,"o":"m 7 -200 l 7 -113 l 558 -113 l 558 -200 z"},"v":{"x_min":0,"x_max":750,"ha":750,"o":"m 700 650 l 480 0 l 220 0 l 0 650 l 210 650 l 350 236 l 490 650 z"},"O":{"x_min":0,"x_max":700,"ha":700,"o":"m 650 325 q 650 191 554 96 q 459 0 325 0 q 190 0 95 95 q 0 190 0 325 q 0 459 96 554 q 191 650 325 650 q 459 650 554 554 q 650 459 650 325 z m 450 325 q 450 376 413 413 q 376 450 325 450 q 273 450 236 414 q 200 377 200 325 q 200 273 236 236 q 273 200 325 200 q 377 200 414 236 q 450 273 450 325 z"},"(":{"x_min":0,"x_max":400,"ha":400,"o":"m 300 -100 l 250 -100 q 144 -12 97 88 q 50 187 50 325 q 50 462 97 562 q 144 662 250 750 l 300 750 q 208 654 169 556 q 130 459 130 325 q 130 190 168 93 q 207 -4 300 -100 z"},"C":{"x_min":0,"x_max":600,"ha":600,"o":"m 550 0 l 325 0 q 190 0 95 95 q 0 190 0 325 q 0 459 96 554 q 191 650 325 650 l 550 650 l 550 450 l 325 450 q 273 450 236 414 q 200 377 200 325 q 200 273 236 236 q 273 200 325 200 l 550 200 z"},"W":{"x_min":0,"x_max":1050,"ha":1050,"o":"m 1000 650 l 780 0 l 580 0 l 500 230 l 420 0 l 220 0 l 68 450 l -70 450 l -70 650 l 210 650 l 305 380 l 400 650 l 600 650 l 695 380 l 790 650 z"},"A":{"x_min":0,"x_max":750,"ha":750,"o":"m 700 0 l 490 0 l 463 80 l 237 80 l 210 0 l 0 0 l 152 450 l -70 450 l -70 650 l 480 650 z m 416 220 l 350 414 l 284 220 z"},"f":{"x_min":0,"x_max":650,"ha":650,"o":"m 600 450 l 200 450 l 200 400 l 500 400 l 500 250 l 200 250 l 200 0 l 0 0 l 0 650 l 600 650 z"},"Q":{"x_min":0,"x_max":750,"ha":750,"o":"m 700 0 l 325 0 q 191 0 96 96 q 0 191 0 325 q 0 459 96 554 q 191 650 325 650 q 459 650 554 554 q 650 459 650 325 q 650 260 625 200 l 700 200 z m 450 325 q 450 377 414 414 q 377 450 325 450 q 274 450 237 413 q 200 376 200 325 q 200 273 236 236 q 273 200 325 200 q 377 200 414 236 q 450 273 450 325 z"},"w":{"x_min":0,"x_max":1050,"ha":1050,"o":"m 1000 650 l 780 0 l 580 0 l 500 230 l 420 0 l 220 0 l 0 650 l 210 650 l 305 380 l 400 650 l 600 650 l 695 380 l 790 650 z"},"-":{"x_min":0,"x_max":450,"ha":450,"o":"m 350 275 l 50 275 l 50 375 l 350 375 z"},"E":{"x_min":0,"x_max":650,"ha":650,"o":"m 600 0 l 0 0 l 0 450 l -70 450 l -70 650 l 600 650 l 600 450 l 200 450 l 200 400 l 500 400 l 500 250 l 200 250 l 200 200 l 600 200 z"},"s":{"x_min":0,"x_max":650,"ha":650,"o":"m 600 450 l 336 450 q 327 447 327 438 q 327 433 330 428 l 408 384 q 530 316 530 200 q 530 117 472 58 q 413 0 330 0 l 0 0 l 0 200 l 264 200 q 273 203 273 212 q 273 217 270 222 l 192 266 q 70 334 70 450 q 70 533 128 592 q 187 650 270 650 l 600 650 z"},">":{"x_min":0,"x_max":583,"ha":583,"o":"m 529 313 l 55 110 l 55 198 l 430 354 l 55 508 l 55 595 l 529 395 z"},"l":{"x_min":0,"x_max":650,"ha":650,"o":"m 600 0 l 0 0 l 0 650 l 200 650 l 200 200 l 600 200 z"},"8":{"x_min":0,"x_max":600,"ha":600,"o":"m 550 200 q 550 117 492 58 q 433 0 350 0 l 200 0 q 117 0 58 58 q 0 117 0 200 q 0 248 12 274 q 20 292 50 325 q 20 358 12 376 q 0 402 0 450 q 0 533 58 592 q 117 650 200 650 l 350 650 q 433 650 492 592 q 550 533 550 450 q 550 402 538 376 q 530 358 500 325 q 530 292 538 274 q 550 248 550 200 z m 350 420 q 350 441 336 456 q 321 470 300 470 l 250 470 q 229 470 214 456 q 200 441 200 420 q 200 399 214 384 q 229 370 250 370 l 300 370 q 321 370 336 384 q 350 399 350 420 z m 350 230 q 350 251 336 266 q 321 280 300 280 l 250 280 q 229 280 214 266 q 200 251 200 230 q 200 209 214 194 q 229 180 250 180 l 300 180 q 321 180 336 194 q 350 209 350 230 z"},"\\":{"x_min":0,"x_max":277,"ha":277,"o":"m 208 -12 l 0 728 l 71 728 l 278 -12 z"},"e":{"x_min":0,"x_max":650,"ha":650,"o":"m 600 0 l 0 0 l 0 650 l 600 650 l 600 450 l 200 450 l 200 400 l 500 400 l 500 250 l 200 250 l 200 200 l 600 200 z"},"b":{"x_min":0,"x_max":650,"ha":650,"o":"m 600 220 q 600 129 536 64 q 471 0 380 0 l 0 0 l 0 650 l 380 650 q 471 650 536 586 q 600 521 600 430 q 600 391 563 325 q 600 259 600 220 z m 400 430 q 400 480 340 480 l 200 480 l 200 380 l 340 380 q 400 380 400 430 z m 400 220 q 400 270 340 270 l 200 270 l 200 170 l 340 170 q 400 170 400 220 z"},"%":{"x_min":0,"x_max":889,"ha":889,"o":"m 58 544 q 58 621 96 674 q 135 728 208 728 q 276 728 320 680 q 364 632 364 539 q 364 448 320 399 q 275 350 209 350 q 145 350 102 398 q 58 446 58 544 z m 211 667 q 178 667 156 639 q 135 611 135 535 q 135 466 157 438 q 179 410 211 410 q 244 410 266 438 q 288 467 288 542 q 288 611 266 639 q 244 667 211 667 z m 211 -26 l 603 728 l 674 728 l 284 -26 z m 521 168 q 521 245 560 298 q 598 352 672 352 q 739 352 784 304 q 828 256 828 163 q 828 72 783 23 q 738 -26 672 -26 q 607 -26 564 22 q 521 71 521 168 z m 674 292 q 641 292 620 264 q 598 235 598 159 q 598 91 620 62 q 642 34 674 34 q 708 34 730 62 q 751 91 751 166 q 751 235 729 264 q 707 292 674 292 z"},"m":{"x_min":0,"x_max":750,"ha":750,"o":"m 700 0 l 500 0 l 500 220 l 350 0 l 200 220 l 200 0 l 0 0 l 0 650 l 200 650 l 350 430 l 500 650 l 700 650 z"},"#":{"x_min":0,"x_max":556,"ha":556,"o":"m 50 -12 l 93 196 l 10 196 l 10 269 l 107 269 l 144 446 l 10 446 l 10 519 l 158 519 l 201 728 l 274 728 l 231 519 l 385 519 l 428 728 l 501 728 l 459 519 l 543 519 l 543 446 l 444 446 l 408 269 l 543 269 l 543 196 l 393 196 l 351 -12 l 277 -12 l 319 196 l 166 196 l 124 -12 z m 181 269 l 334 269 l 371 446 l 217 446 z"},",":{"x_min":0,"x_max":250,"ha":250,"o":"m 200 100 q 200 17 142 -42 q 83 -100 0 -100 l 0 -50 q 41 -50 70 -36 q 100 -21 100 0 q 59 0 30 30 q 0 59 0 100 q 0 141 30 170 q 59 200 100 200 q 141 200 170 170 q 200 141 200 100 z m 0 -100 z"},"n":{"x_min":0,"x_max":650,"ha":650,"o":"m 600 0 l 400 0 q 400 186 318 273 q 264 330 200 330 l 200 0 l 0 0 l 0 650 l 4 650 q 145 650 261 595 q 364 546 400 480 l 400 650 l 600 650 z"},"h":{"x_min":0,"x_max":650,"ha":650,"o":"m 600 0 l 400 0 l 400 250 l 200 250 l 200 0 l 0 0 l 0 650 l 200 650 l 200 400 l 400 400 l 400 650 l 600 650 z"},"z":{"x_min":0,"x_max":650,"ha":650,"o":"m 600 0 l 0 0 l 0 200 l 290 450 l 0 450 l 0 650 l 600 650 l 600 450 l 310 200 l 600 200 z"},"B":{"x_min":0,"x_max":650,"ha":650,"o":"m 600 220 q 600 129 536 64 q 471 0 380 0 l 0 0 l 0 450 l -70 450 l -70 650 l 380 650 q 471 650 536 586 q 600 521 600 430 q 600 391 563 325 q 600 259 600 220 z m 400 430 q 400 480 340 480 l 200 480 l 200 380 l 340 380 q 400 380 400 430 z m 400 220 q 400 270 340 270 l 200 270 l 200 170 l 340 170 q 400 170 400 220 z"},"K":{"x_min":0,"x_max":670,"ha":670,"o":"m 620 0 l 480 0 q 400 0 340 60 l 200 200 l 200 0 l 0 0 l 0 450 l -70 450 l -70 650 l 200 650 l 200 395 l 370 650 l 600 650 l 375 313 l 470 219 q 489 200 530 200 l 620 200 z"},"R":{"x_min":0,"x_max":670,"ha":670,"o":"m 620 0 l 490 0 q 410 0 350 60 l 200 210 l 200 0 l 0 0 l 0 450 l -70 450 l -70 650 l 380 650 q 471 650 536 586 q 600 521 600 430 q 600 365 564 310 q 529 256 470 229 q 483 200 520 200 l 620 200 z m 400 430 q 400 480 340 480 l 200 480 l 200 380 l 340 380 q 400 380 400 430 z"},"T":{"x_min":0,"x_max":650,"ha":650,"o":"m 600 450 l 400 450 l 400 0 l 200 0 l 200 450 l -70 450 l -70 650 l 600 650 z"},"P":{"x_min":0,"x_max":650,"ha":650,"o":"m 600 430 q 600 339 536 274 q 471 210 380 210 l 200 210 l 200 0 l 0 0 l 0 450 l -70 450 l -70 650 l 380 650 q 471 650 536 586 q 600 521 600 430 z m 400 430 q 400 480 340 480 l 200 480 l 200 380 l 340 380 q 400 380 400 430 z"},"|":{"x_min":0,"x_max":259,"ha":259,"o":"m 92 -210 l 92 728 l 168 728 l 168 -210 z"},"t":{"x_min":0,"x_max":650,"ha":650,"o":"m 600 450 l 400 450 l 400 0 l 200 0 l 200 450 l 0 450 l 0 650 l 600 650 z"},"M":{"x_min":0,"x_max":750,"ha":750,"o":"m 700 0 l 500 0 l 500 220 l 350 0 l 200 220 l 200 0 l 0 0 l 0 450 l -70 450 l -70 650 l 200 650 l 350 430 l 500 650 l 700 650 z"},"g":{"x_min":0,"x_max":650,"ha":650,"o":"m 600 0 l 325 0 q 190 0 95 95 q 0 190 0 325 q 0 459 96 554 q 191 650 325 650 l 600 650 l 600 450 l 325 450 q 273 450 236 414 q 200 377 200 325 q 200 273 236 236 q 273 200 325 200 l 400 200 l 400 350 l 600 350 z"},"j":{"x_min":0,"x_max":400,"ha":400,"o":"m 350 100 q 350 -24 262 -112 q 174 -200 50 -200 l 0 0 l 50 0 q 91 0 120 30 q 150 59 150 100 l 150 650 l 350 650 z"},"i":{"x_min":0,"x_max":250,"ha":250,"o":"m 200 0 l 0 0 l 0 650 l 200 650 z"},"y":{"x_min":0,"x_max":700,"ha":700,"o":"m 650 650 l 425 305 l 425 0 l 225 0 l 225 305 l 0 650 l 240 650 l 325 515 l 410 650 z"},"@":{"x_min":0,"x_max":700,"ha":700,"o":"m 650 320 q 650 185 555 90 q 460 -5 325 -5 q 190 -5 95 90 q 0 185 0 320 q 0 411 46 488 q 93 564 170 606 q 96 531 96 441 q 96 376 123 329 q 157 270 221 270 q 256 270 276 317 q 292 356 292 403 q 292 457 265 498 q 240 536 203 548 l 240 592 q 272 574 289 540 q 285 605 266 624 l 325 695 l 384 624 q 365 605 361 540 q 378 574 410 592 l 447 548 q 410 536 385 498 q 358 457 358 403 q 358 356 374 317 q 394 270 429 270 q 493 270 527 329 q 554 376 554 441 q 554 531 480 606 q 557 564 604 488 q 650 411 650 320 z"},".":{"x_min":0,"x_max":250,"ha":250,"o":"m 200 100 q 200 59 170 30 q 141 0 100 0 q 59 0 30 30 q 0 59 0 100 q 0 141 30 170 q 59 200 100 200 q 141 200 170 170 q 200 141 200 100 z"},"p":{"x_min":0,"x_max":650,"ha":650,"o":"m 600 430 q 600 339 536 274 q 471 210 380 210 l 200 210 l 200 0 l 0 0 l 0 650 l 380 650 q 471 650 536 586 q 600 521 600 430 z m 400 430 q 400 480 340 480 l 200 480 l 200 380 l 340 380 q 400 380 400 430 z"},"X":{"x_min":0,"x_max":700,"ha":700,"o":"m 650 0 l 410 0 l 325 135 l 240 0 l 0 0 l 205 325 l 126 450 l -70 450 l -70 650 l 240 650 l 325 515 l 410 650 l 650 650 l 445 325 z"},"*":{"x_min":0,"x_max":700,"ha":700,"o":"m 650 325 q 650 191 554 96 q 459 0 325 0 q 190 0 95 95 q 0 190 0 325 q 0 459 96 554 q 191 650 325 650 q 459 650 554 554 q 650 459 650 325 z m 555 493 q 480 595 355 608 l 355 588 q 382 585 409 576 l 399 548 q 447 532 484 498 l 486 497 l 506 518 q 523 502 538 482 z m 610 324 l 610 325 q 610 385 585 441 l 568 431 q 579 405 584 378 l 555 372 q 560 349 560 325 q 560 316 557 298 q 554 280 554 272 l 583 265 q 578 241 568 219 l 586 209 q 610 264 610 324 z m 295 588 l 295 609 q 170 596 95 493 l 112 483 q 129 505 149 523 l 169 501 q 186 516 212 528 q 254 549 257 550 l 248 579 q 271 586 295 588 z m 510 387 q 498 422 474 450 l 405 392 q 382 420 346 428 l 364 516 q 345 520 325 520 q 308 520 291 517 l 307 429 q 271 422 246 394 l 179 454 q 154 426 142 392 l 226 361 q 220 343 220 324 q 220 307 225 291 l 140 263 q 152 228 176 200 l 244 257 q 268 229 304 222 l 286 134 q 305 130 325 130 q 342 130 359 133 l 343 222 q 379 228 404 256 l 471 196 q 496 224 508 258 l 424 289 q 430 306 430 324 l 430 325 q 430 342 424 358 z m 555 157 l 538 167 q 522 145 501 127 l 481 149 q 443 116 394 100 l 393 100 l 402 72 q 379 65 355 62 l 355 42 q 481 55 555 157 z m 96 378 l 67 385 q 73 409 82 431 l 65 441 q 40 385 40 324 q 40 264 64 209 l 82 219 q 71 245 65 272 l 95 278 q 90 301 90 325 q 90 351 96 377 z m 295 41 l 295 62 q 268 65 241 73 l 251 102 q 203 118 165 153 l 164 153 l 144 131 q 126 148 112 167 l 94 157 q 169 54 295 41 z"},"Y":{"x_min":0,"x_max":700,"ha":700,"o":"m 650 650 l 425 305 l 425 0 l 225 0 l 225 305 l 130 450 l -70 450 l -70 650 l 240 650 l 325 515 l 410 650 z"},"c":{"x_min":0,"x_max":600,"ha":600,"o":"m 550 0 l 325 0 q 190 0 95 95 q 0 190 0 325 q 0 459 96 554 q 191 650 325 650 l 550 650 l 550 450 l 325 450 q 273 450 236 414 q 200 377 200 325 q 200 273 236 236 q 273 200 325 200 l 550 200 z"},"!":{"x_min":0,"x_max":250,"ha":250,"o":"m 200 650 l 180 250 l 20 250 l 0 650 z m 200 100 q 200 59 170 30 q 141 0 100 0 q 59 0 30 30 q 0 59 0 100 q 0 141 30 170 q 59 200 100 200 q 141 200 170 170 q 200 141 200 100 z"},"/":{"x_min":0,"x_max":277,"ha":277,"o":"m 0 -12 l 208 728 l 278 728 l 71 -12 z"},"[":{"x_min":0,"x_max":277,"ha":277,"o":"m 68 -199 l 68 716 l 262 716 l 262 643 l 156 643 l 156 -126 l 262 -126 l 262 -199 z"},"6":{"x_min":0,"x_max":600,"ha":600,"o":"m 550 200 q 550 117 492 58 q 433 0 350 0 l 200 0 q 117 0 58 58 q 0 117 0 200 l 0 450 q 0 533 58 592 q 117 650 200 650 l 350 650 q 433 650 492 592 q 550 533 550 450 l 550 420 l 350 420 q 350 441 336 456 q 321 470 300 470 l 250 470 q 229 470 214 456 q 200 441 200 420 l 200 331 q 200 351 238 366 q 276 380 330 380 l 350 380 q 433 380 492 333 q 550 286 550 220 z m 350 230 l 350 260 q 350 281 336 296 q 321 310 300 310 l 250 310 q 229 310 214 296 q 200 281 200 260 l 200 230 q 200 209 214 194 q 229 180 250 180 l 300 180 q 321 180 336 194 q 350 209 350 230 z"},"r":{"x_min":0,"x_max":670,"ha":670,"o":"m 620 0 l 490 0 q 410 0 350 60 l 200 210 l 200 0 l 0 0 l 0 650 l 380 650 q 471 650 536 586 q 600 521 600 430 q 600 365 564 310 q 529 256 470 229 q 483 200 520 200 l 620 200 z m 400 430 q 400 480 340 480 l 200 480 l 200 380 l 340 380 q 400 380 400 430 z"},"2":{"x_min":0,"x_max":600,"ha":600,"o":"m 550 0 l 0 0 l 0 180 q 0 250 58 300 q 117 350 200 350 q 262 350 306 364 q 350 379 350 400 l 350 420 q 350 441 336 456 q 321 470 300 470 l 250 470 q 229 470 214 456 q 200 441 200 420 l 200 400 l 0 400 l 0 450 q 0 533 58 592 q 117 650 200 650 l 350 650 q 433 650 492 592 q 550 533 550 450 l 550 380 q 550 310 492 260 q 433 210 350 210 q 309 210 280 201 q 250 192 250 180 l 550 180 z"},"{":{"x_min":0,"x_max":333,"ha":333,"o":"m 28 299 q 65 300 89 319 q 113 338 120 372 q 128 406 128 488 q 129 569 132 595 q 136 636 148 661 q 160 686 178 700 q 195 715 223 723 q 241 728 283 728 l 311 728 l 311 651 l 295 651 q 245 651 228 633 q 211 615 211 551 q 211 423 206 390 q 197 337 176 309 q 155 281 109 259 q 163 236 187 190 q 211 144 211 39 q 211 -56 213 -74 q 217 -107 233 -120 q 249 -134 295 -134 l 311 -134 l 311 -210 l 283 -210 q 235 -210 214 -203 q 183 -191 162 -166 q 142 -141 136 -102 q 129 -64 128 24 q 128 112 120 146 q 113 179 89 198 q 65 218 28 219 z"},"9":{"x_min":0,"x_max":600,"ha":600,"o":"m 550 200 q 550 117 492 58 q 433 0 350 0 l 200 0 q 117 0 58 58 q 0 117 0 200 l 0 230 l 200 230 q 200 209 214 194 q 229 180 250 180 l 300 180 q 321 180 336 194 q 350 209 350 230 l 350 319 q 350 299 312 284 q 274 270 220 270 l 200 270 q 117 270 58 317 q 0 364 0 430 l 0 450 q 0 533 58 592 q 117 650 200 650 l 350 650 q 433 650 492 592 q 550 533 550 450 z m 350 390 l 350 420 q 350 441 336 456 q 321 470 300 470 l 250 470 q 229 470 214 456 q 200 441 200 420 l 200 390 q 200 369 214 354 q 229 340 250 340 l 300 340 q 321 340 336 354 q 350 369 350 390 z"}," ":{"x_min":0,"x_max":400,"ha":400,"o":""},"I":{"x_min":0,"x_max":250,"ha":250,"o":"m 200 0 l 0 0 l 0 450 l -70 450 l -70 650 l 200 650 z"},"H":{"x_min":0,"x_max":650,"ha":650,"o":"m 600 0 l 400 0 l 400 250 l 200 250 l 200 0 l 0 0 l 0 450 l -70 450 l -70 650 l 200 650 l 200 400 l 400 400 l 400 650 l 600 650 z"},"4":{"x_min":0,"x_max":600,"ha":600,"o":"m 550 100 l 500 100 l 500 0 l 300 0 l 300 100 l 0 100 l 0 260 l 200 650 l 500 650 l 500 260 l 550 260 z m 300 260 l 300 480 l 200 260 z"},"~":{"x_min":0,"x_max":583,"ha":583,"o":"m 42 272 l 42 372 q 94 431 178 431 q 208 431 240 422 q 272 414 332 388 q 365 374 382 370 q 399 365 416 365 q 448 365 482 384 q 516 403 542 432 l 542 329 q 511 299 479 286 q 447 273 407 273 q 377 273 350 280 q 324 287 266 312 q 208 338 170 338 q 139 338 111 325 q 83 312 42 272 z"},"D":{"x_min":0,"x_max":650,"ha":650,"o":"m 600 325 q 600 190 505 95 q 410 0 275 0 l 0 0 l 0 450 l -70 450 l -70 650 l 275 650 q 409 650 504 554 q 600 459 600 325 z m 400 325 q 400 377 364 414 q 327 450 275 450 l 200 450 l 200 200 l 275 200 q 327 200 364 236 q 400 273 400 325 z"},"^":{"x_min":0,"x_max":469,"ha":469,"o":"m 117 337 l 26 337 l 199 728 l 270 728 l 443 337 l 354 337 l 234 628 z"},"0":{"x_min":0,"x_max":600,"ha":600,"o":"m 550 200 q 550 117 492 58 q 433 0 350 0 l 200 0 q 117 0 58 58 q 0 117 0 200 l 0 450 q 0 533 58 592 q 117 650 200 650 l 350 650 q 433 650 492 592 q 550 533 550 450 z m 350 230 l 350 420 q 350 441 336 456 q 321 470 300 470 l 250 470 q 229 470 214 456 q 200 441 200 420 l 200 230 q 200 209 214 194 q 229 180 250 180 l 300 180 q 321 180 336 194 q 350 209 350 230 z"},"F":{"x_min":0,"x_max":650,"ha":650,"o":"m 600 450 l 200 450 l 200 400 l 500 400 l 500 250 l 200 250 l 200 0 l 0 0 l 0 450 l -70 450 l -70 650 l 600 650 z"},"`":{"x_min":0,"x_max":333,"ha":333,"o":"m 227 583 l 156 583 l 43 720 l 161 720 z"},"k":{"x_min":0,"x_max":556,"ha":556,"o":"m 605 0 l 465 0 q 385 0 325 60 l 185 200 l 185 0 l -15 0 l -15 650 l 185 650 l 185 395 l 355 650 l 585 650 l 360 313 l 455 219 q 474 200 515 200 l 605 200 z"},"u":{"x_min":0,"x_max":650,"ha":650,"o":"m 600 300 q 600 176 512 88 q 424 0 300 0 q 176 0 88 88 q 0 176 0 300 l 0 650 l 200 650 l 200 300 q 200 259 230 230 q 259 200 300 200 q 341 200 370 230 q 400 259 400 300 l 400 650 l 600 650 z"},"]":{"x_min":0,"x_max":277,"ha":277,"o":"m 213 -199 l 19 -199 l 19 -126 l 125 -126 l 125 643 l 19 643 l 19 716 l 213 716 z"},"U":{"x_min":0,"x_max":650,"ha":650,"o":"m 600 300 q 600 176 512 88 q 424 0 300 0 q 176 0 88 88 q 0 176 0 300 l 0 450 l -70 450 l -70 650 l 200 650 l 200 300 q 200 259 230 230 q 259 200 300 200 q 341 200 370 230 q 400 259 400 300 l 400 650 l 600 650 z"},"o":{"x_min":0,"x_max":700,"ha":700,"o":"m 650 325 q 650 191 554 96 q 459 0 325 0 q 190 0 95 95 q 0 190 0 325 q 0 459 96 554 q 191 650 325 650 q 459 650 554 554 q 650 459 650 325 z m 450 325 q 450 376 413 413 q 376 450 325 450 q 273 450 236 414 q 200 377 200 325 q 200 273 236 236 q 273 200 325 200 q 377 200 414 236 q 450 273 450 325 z"},"N":{"x_min":0,"x_max":650,"ha":650,"o":"m 600 0 l 400 0 q 400 186 318 273 q 264 330 200 330 l 200 0 l 0 0 l 0 450 l -70 450 l -70 650 l 4 650 q 145 650 261 595 q 364 546 400 480 l 400 650 l 600 650 z"},"+":{"x_min":0,"x_max":583,"ha":583,"o":"m 250 116 l 250 312 l 56 312 l 56 394 l 250 394 l 250 589 l 333 589 l 333 394 l 528 394 l 528 312 l 333 312 l 333 116 z"},"G":{"x_min":0,"x_max":650,"ha":650,"o":"m 600 0 l 325 0 q 190 0 95 95 q 0 190 0 325 q 0 459 96 554 q 191 650 325 650 l 600 650 l 600 450 l 325 450 q 273 450 236 414 q 200 377 200 325 q 200 273 236 236 q 273 200 325 200 l 400 200 l 400 350 l 600 350 z"},"q":{"x_min":0,"x_max":750,"ha":750,"o":"m 700 0 l 325 0 q 191 0 96 96 q 0 191 0 325 q 0 459 96 554 q 191 650 325 650 q 459 650 554 554 q 650 459 650 325 q 650 260 625 200 l 700 200 z m 450 325 q 450 377 414 414 q 377 450 325 450 q 274 450 237 413 q 200 376 200 325 q 200 273 236 236 q 273 200 325 200 q 377 200 414 236 q 450 273 450 325 z"},"d":{"x_min":0,"x_max":650,"ha":650,"o":"m 600 325 q 600 190 505 95 q 410 0 275 0 l 0 0 l 0 650 l 275 650 q 409 650 504 554 q 600 459 600 325 z m 400 325 q 400 377 364 414 q 327 450 275 450 l 200 450 l 200 200 l 275 200 q 327 200 364 236 q 400 273 400 325 z"},"1":{"x_min":0,"x_max":300,"ha":300,"o":"m 250 0 l 50 0 l 50 450 l 0 450 l 0 650 l 250 650 z"},"5":{"x_min":0,"x_max":600,"ha":600,"o":"m 550 200 q 550 117 492 58 q 433 0 350 0 l 200 0 q 117 0 58 58 q 0 117 0 200 l 0 230 l 200 230 q 200 209 214 194 q 229 180 250 180 l 300 180 q 321 180 336 194 q 350 209 350 230 l 350 280 q 350 301 336 316 q 321 330 300 330 l 250 330 q 229 330 214 316 q 200 301 200 280 l 0 280 l 50 650 l 530 650 l 530 450 l 215 450 l 200 351 q 200 371 238 386 q 276 400 330 400 l 350 400 q 433 400 492 353 q 550 306 550 240 z"}}}
